<?xml version="1.0" standalone="no"?>
<!DOCTYPE svg PUBLIC "-//W3C//DTD SVG 20010904//EN"
 "http://www.w3.org/TR/2001/REC-SVG-20010904/DTD/svg10.dtd">
<svg version="1.0" xmlns="http://www.w3.org/2000/svg"
 width="225.000000pt" height="225.000000pt" viewBox="0 0 225.000000 225.000000"
 preserveAspectRatio="xMidYMid meet">

<g transform="translate(0.000000,225.000000) scale(0.100000,-0.100000)"
fill="#000000" stroke="none">
<path d="M1461 2221 c-8 -5 9 -10 49 -13 53 -4 67 -9 86 -32 45 -52 44 -104
-5 -158 -24 -27 -36 -32 -87 -35 -65 -5 -147 14 -369 87 -178 57 -242 70 -366
70 -162 0 -277 -47 -375 -153 -88 -94 -99 -123 -99 -252 0 -102 2 -113 27
-156 15 -26 42 -59 60 -74 40 -34 125 -75 154 -75 l22 0 -20 38 c-24 46 -19
119 11 161 42 59 149 76 293 46 40 -9 165 -42 278 -75 259 -74 328 -90 396
-90 l54 0 0 -114 0 -115 -130 -116 c-71 -65 -130 -118 -130 -120 0 -2 59 -55
130 -120 l130 -116 0 -159 0 -159 -37 -12 c-21 -6 -104 -13 -185 -16 -172 -6
-253 8 -368 63 -90 43 -193 143 -233 226 -77 161 -77 407 1 572 50 105 112
171 252 268 24 16 22 16 -30 1 -352 -100 -584 -280 -686 -531 -48 -119 -56
-299 -19 -437 22 -83 85 -209 139 -277 104 -130 288 -243 481 -295 88 -23 120
-26 265 -27 206 -1 298 16 425 79 113 55 174 102 245 186 104 124 159 270 180
473 13 120 10 160 -8 116 -20 -49 -113 -182 -159 -226 -67 -66 -207 -154 -243
-154 -6 0 -10 55 -10 155 l0 154 130 113 c72 62 129 117 127 123 -2 5 -61 61
-131 124 l-127 114 3 110 3 110 57 13 c120 28 222 104 274 205 23 45 28 70 32
152 4 90 2 101 -22 152 -46 93 -158 173 -275 195 -65 12 -171 13 -190 1z"/>
<path d="M1095 1457 l-180 -73 -3 -397 c-2 -321 0 -397 11 -397 7 0 82 27 167
61 85 33 167 65 183 71 l27 10 0 262 c0 279 -9 536 -19 536 -3 0 -87 -33 -186
-73z"/>
</g>
</svg>
